<mxfile host="app.diagrams.net" modified="2023-11-03T12:23:59.694Z" agent="Mozilla/5.0 (Macintosh; Intel Mac OS X 10_15_7) AppleWebKit/537.36 (KHTML, like Gecko) Chrome/116.0.0.0 Safari/537.36" etag="9xwHOiFFWhMYnKyt3hbh" version="22.0.8" type="github">
  <diagram id="M0ThQtKCt6UaDLa-iujc" name="Page-1">
    <mxGraphModel dx="1128" dy="2276" grid="1" gridSize="10" guides="1" tooltips="1" connect="1" arrows="1" fold="1" page="0" pageScale="1" pageWidth="850" pageHeight="1100" math="0" shadow="0">
      <root>
        <mxCell id="0" />
        <mxCell id="1" parent="0" />
        <mxCell id="j03V7xY_W4QlnJfzkWD_-252" value="" style="rounded=0;whiteSpace=wrap;html=1;" parent="1" vertex="1">
          <mxGeometry x="1860" y="440" width="1590" height="730" as="geometry" />
        </mxCell>
        <mxCell id="j03V7xY_W4QlnJfzkWD_-205" style="edgeStyle=orthogonalEdgeStyle;rounded=0;orthogonalLoop=1;jettySize=auto;html=1;" parent="1" source="j03V7xY_W4QlnJfzkWD_-207" target="j03V7xY_W4QlnJfzkWD_-208" edge="1">
          <mxGeometry relative="1" as="geometry" />
        </mxCell>
        <mxCell id="j03V7xY_W4QlnJfzkWD_-206" style="edgeStyle=orthogonalEdgeStyle;rounded=0;orthogonalLoop=1;jettySize=auto;html=1;" parent="1" source="j03V7xY_W4QlnJfzkWD_-207" target="j03V7xY_W4QlnJfzkWD_-211" edge="1">
          <mxGeometry relative="1" as="geometry" />
        </mxCell>
        <mxCell id="j03V7xY_W4QlnJfzkWD_-207" value="&lt;div style=&quot;text-align: center;&quot;&gt;&lt;font style=&quot;font-size: 20px;&quot; color=&quot;#70f041&quot;&gt;root&amp;nbsp;&lt;/font&gt;&lt;span style=&quot;background-color: initial;&quot;&gt;&lt;font color=&quot;#b266ff&quot;&gt;[0]&lt;/font&gt;&lt;/span&gt;&lt;/div&gt;&lt;font color=&quot;#ffffff&quot;&gt;[&lt;/font&gt;&lt;font color=&quot;#ff3333&quot;&gt;NULL&amp;nbsp;&lt;/font&gt;&lt;font color=&quot;#ff3333&quot;&gt;NULL&lt;/font&gt;&amp;nbsp;100&amp;nbsp;&lt;font color=&quot;#ff3333&quot;&gt;NULL&lt;/font&gt;&amp;nbsp;200&amp;nbsp;&lt;font color=&quot;#ff3333&quot;&gt;NULL&lt;/font&gt;&amp;nbsp;&lt;font color=&quot;#ff3333&quot;&gt;NULL&lt;/font&gt;&amp;nbsp;&lt;font color=&quot;#ff3333&quot;&gt;NULL&lt;/font&gt;&amp;nbsp;&lt;font color=&quot;#ff3333&quot;&gt;NULL&lt;/font&gt;&amp;nbsp;&lt;font color=&quot;#ff3333&quot;&gt;NULL&lt;/font&gt;]" style="rounded=1;whiteSpace=wrap;html=1;align=left;spacingBottom=5;spacingLeft=5;spacingRight=5;spacingTop=5;spacing=5;" parent="1" vertex="1">
          <mxGeometry x="2285" y="470" width="345" height="50" as="geometry" />
        </mxCell>
        <mxCell id="j03V7xY_W4QlnJfzkWD_-246" style="edgeStyle=orthogonalEdgeStyle;rounded=0;orthogonalLoop=1;jettySize=auto;html=1;entryX=0.5;entryY=0;entryDx=0;entryDy=0;" parent="1" source="j03V7xY_W4QlnJfzkWD_-208" target="j03V7xY_W4QlnJfzkWD_-213" edge="1">
          <mxGeometry relative="1" as="geometry" />
        </mxCell>
        <mxCell id="j03V7xY_W4QlnJfzkWD_-208" value="&lt;div style=&quot;text-align: center;&quot;&gt;&lt;span style=&quot;background-color: initial;&quot;&gt;&lt;font style=&quot;font-size: 20px;&quot; color=&quot;#70f041&quot;&gt;2&amp;nbsp;&lt;/font&gt;&lt;/span&gt;&lt;span style=&quot;background-color: initial;&quot;&gt;&lt;font color=&quot;#b266ff&quot;&gt;[100]&lt;/font&gt;&lt;/span&gt;&lt;/div&gt;[&lt;font color=&quot;#ff3333&quot;&gt;NULL&amp;nbsp;&lt;/font&gt;&lt;font color=&quot;#ff3333&quot;&gt;NULL&lt;/font&gt;&lt;font color=&quot;#ff3333&quot;&gt;&amp;nbsp;&lt;/font&gt;&lt;font color=&quot;#ff3333&quot;&gt;NULL&lt;/font&gt;&amp;nbsp;&lt;font color=&quot;#ff3333&quot;&gt;NULL&lt;/font&gt;&lt;font color=&quot;#ff3333&quot;&gt;&amp;nbsp;&lt;/font&gt;&lt;font color=&quot;#ff3333&quot;&gt;NULL&lt;/font&gt;&amp;nbsp;&lt;font color=&quot;#ff3333&quot;&gt;NULL&lt;/font&gt;&amp;nbsp;3&lt;font color=&quot;#ffffff&quot;&gt;00&lt;/font&gt;&lt;font color=&quot;#ff3333&quot;&gt;&amp;nbsp;&lt;/font&gt;&lt;font color=&quot;#ff3333&quot;&gt;NULL&lt;/font&gt;&amp;nbsp;&lt;font color=&quot;#ff3333&quot;&gt;NULL&lt;/font&gt;&amp;nbsp;&lt;font color=&quot;#ff3333&quot;&gt;NULL&lt;/font&gt;]" style="rounded=1;whiteSpace=wrap;html=1;align=left;spacingBottom=5;spacingLeft=5;spacingRight=5;spacingTop=5;spacing=5;" parent="1" vertex="1">
          <mxGeometry x="1900" y="550" width="349" height="50" as="geometry" />
        </mxCell>
        <mxCell id="j03V7xY_W4QlnJfzkWD_-210" style="edgeStyle=orthogonalEdgeStyle;rounded=0;orthogonalLoop=1;jettySize=auto;html=1;" parent="1" source="j03V7xY_W4QlnJfzkWD_-211" target="j03V7xY_W4QlnJfzkWD_-221" edge="1">
          <mxGeometry relative="1" as="geometry" />
        </mxCell>
        <mxCell id="j03V7xY_W4QlnJfzkWD_-251" style="edgeStyle=orthogonalEdgeStyle;rounded=0;orthogonalLoop=1;jettySize=auto;html=1;" parent="1" source="j03V7xY_W4QlnJfzkWD_-211" edge="1">
          <mxGeometry relative="1" as="geometry">
            <mxPoint x="2670" y="610" as="targetPoint" />
          </mxGeometry>
        </mxCell>
        <mxCell id="j03V7xY_W4QlnJfzkWD_-211" value="&lt;div style=&quot;text-align: center;&quot;&gt;&lt;font style=&quot;font-size: 20px;&quot; color=&quot;#70f041&quot;&gt;4&amp;nbsp;&lt;/font&gt;&lt;span style=&quot;background-color: initial;&quot;&gt;&lt;font color=&quot;#b266ff&quot;&gt;[200]&lt;/font&gt;&lt;/span&gt;&lt;/div&gt;[&lt;font color=&quot;#ff3333&quot;&gt;NULL&amp;nbsp;&lt;/font&gt;&lt;font color=&quot;#ffffff&quot;&gt;400&lt;/font&gt;&lt;font color=&quot;#ff3333&quot;&gt;&amp;nbsp;&lt;/font&gt;&lt;font color=&quot;#ff3333&quot;&gt;NULL&lt;/font&gt;&amp;nbsp;&lt;font color=&quot;#ff3333&quot;&gt;NULL&lt;/font&gt;&lt;font color=&quot;#ff3333&quot;&gt;&amp;nbsp;&lt;/font&gt;&lt;font color=&quot;#ffffff&quot;&gt;500&lt;/font&gt;&amp;nbsp;&lt;font color=&quot;#ff3333&quot;&gt;NULL&lt;/font&gt;&amp;nbsp;&lt;font color=&quot;#ff3333&quot;&gt;NULL&lt;/font&gt;&amp;nbsp;&lt;font color=&quot;#ff3333&quot;&gt;NULL&lt;/font&gt;&amp;nbsp;&lt;font color=&quot;#ff3333&quot;&gt;NULL&lt;/font&gt;&amp;nbsp;&lt;font color=&quot;#ff3333&quot;&gt;NULL&lt;/font&gt;]" style="rounded=1;whiteSpace=wrap;html=1;align=left;spacingBottom=5;spacingLeft=5;spacingRight=5;spacingTop=5;spacing=5;" parent="1" vertex="1">
          <mxGeometry x="2710" y="550" width="340" height="50" as="geometry" />
        </mxCell>
        <mxCell id="j03V7xY_W4QlnJfzkWD_-212" style="edgeStyle=orthogonalEdgeStyle;rounded=0;orthogonalLoop=1;jettySize=auto;html=1;entryX=0.5;entryY=0;entryDx=0;entryDy=0;" parent="1" source="j03V7xY_W4QlnJfzkWD_-213" target="j03V7xY_W4QlnJfzkWD_-215" edge="1">
          <mxGeometry relative="1" as="geometry" />
        </mxCell>
        <mxCell id="j03V7xY_W4QlnJfzkWD_-213" value="&lt;div style=&quot;text-align: center;&quot;&gt;&lt;font style=&quot;font-size: 20px;&quot; color=&quot;#70f041&quot;&gt;6&amp;nbsp;&lt;/font&gt;&lt;span style=&quot;background-color: initial;&quot;&gt;&lt;font color=&quot;#b266ff&quot;&gt;[300]&lt;/font&gt;&lt;/span&gt;&lt;br&gt;&lt;/div&gt;[&lt;font color=&quot;#ff3333&quot;&gt;NULL&amp;nbsp;&lt;/font&gt;&lt;font color=&quot;#ff3333&quot;&gt;NULL&lt;/font&gt;&lt;font color=&quot;#ff3333&quot;&gt;&amp;nbsp;&lt;/font&gt;&lt;font color=&quot;#ff3333&quot;&gt;NULL&lt;/font&gt;&amp;nbsp;&lt;font color=&quot;#ff3333&quot;&gt;NULL&lt;/font&gt;&lt;font color=&quot;#ff3333&quot;&gt;&amp;nbsp;&lt;/font&gt;&lt;font color=&quot;#ff3333&quot;&gt;NULL&lt;/font&gt;&amp;nbsp;&lt;font color=&quot;#ff3333&quot;&gt;NULL&lt;/font&gt;&amp;nbsp;&lt;font color=&quot;#ff3333&quot;&gt;NULL&lt;/font&gt;&amp;nbsp;&lt;font color=&quot;#ff3333&quot;&gt;NULL&lt;/font&gt;&amp;nbsp;&lt;font color=&quot;#ffffff&quot;&gt;400&lt;/font&gt;&amp;nbsp;&lt;font color=&quot;#ff3333&quot;&gt;NULL&lt;/font&gt;]" style="rounded=1;whiteSpace=wrap;html=1;align=left;spacingBottom=5;spacingLeft=5;spacingRight=5;spacingTop=5;spacing=5;" parent="1" vertex="1">
          <mxGeometry x="1900" y="620" width="349" height="50" as="geometry" />
        </mxCell>
        <mxCell id="j03V7xY_W4QlnJfzkWD_-214" style="edgeStyle=orthogonalEdgeStyle;rounded=0;orthogonalLoop=1;jettySize=auto;html=1;entryX=0.5;entryY=0;entryDx=0;entryDy=0;" parent="1" source="j03V7xY_W4QlnJfzkWD_-215" target="j03V7xY_W4QlnJfzkWD_-217" edge="1">
          <mxGeometry relative="1" as="geometry" />
        </mxCell>
        <mxCell id="j03V7xY_W4QlnJfzkWD_-215" value="&lt;div style=&quot;text-align: center;&quot;&gt;&lt;font style=&quot;font-size: 20px;&quot; color=&quot;#70f041&quot;&gt;8&amp;nbsp;&lt;/font&gt;&lt;span style=&quot;background-color: initial;&quot;&gt;&lt;font color=&quot;#b266ff&quot;&gt;[600]&lt;/font&gt;&lt;/span&gt;&lt;/div&gt;[9&lt;font color=&quot;#ffffff&quot;&gt;00&lt;/font&gt;&lt;font color=&quot;#ff3333&quot;&gt;&amp;nbsp;&lt;/font&gt;&lt;font color=&quot;#ff3333&quot;&gt;NULL&lt;/font&gt;&lt;font color=&quot;#ff3333&quot;&gt;&amp;nbsp;&lt;/font&gt;&lt;font color=&quot;#ff3333&quot;&gt;NULL&lt;/font&gt;&amp;nbsp;&lt;font color=&quot;#ff3333&quot;&gt;NULL&lt;/font&gt;&lt;font color=&quot;#ff3333&quot;&gt;&amp;nbsp;&lt;/font&gt;&lt;font color=&quot;#ff3333&quot;&gt;NULL&lt;/font&gt;&amp;nbsp;&lt;font color=&quot;#ff3333&quot;&gt;NULL&lt;/font&gt;&amp;nbsp;&lt;font color=&quot;#ff3333&quot;&gt;NULL&lt;/font&gt;&amp;nbsp;&lt;font color=&quot;#ff3333&quot;&gt;NULL&lt;/font&gt;&amp;nbsp;&lt;font color=&quot;#ff3333&quot;&gt;NULL&lt;/font&gt;&amp;nbsp;&lt;font color=&quot;#ff3333&quot;&gt;NULL&lt;/font&gt;]" style="rounded=1;whiteSpace=wrap;html=1;align=left;spacingBottom=5;spacingLeft=5;spacingRight=5;spacingTop=5;spacing=5;" parent="1" vertex="1">
          <mxGeometry x="1900" y="690" width="349" height="50" as="geometry" />
        </mxCell>
        <mxCell id="j03V7xY_W4QlnJfzkWD_-216" style="edgeStyle=orthogonalEdgeStyle;rounded=0;orthogonalLoop=1;jettySize=auto;html=1;entryX=0.5;entryY=0;entryDx=0;entryDy=0;" parent="1" source="j03V7xY_W4QlnJfzkWD_-217" target="j03V7xY_W4QlnJfzkWD_-241" edge="1">
          <mxGeometry relative="1" as="geometry" />
        </mxCell>
        <mxCell id="j03V7xY_W4QlnJfzkWD_-217" value="&lt;div style=&quot;text-align: center;&quot;&gt;&lt;font style=&quot;font-size: 20px;&quot; color=&quot;#70f041&quot;&gt;0&amp;nbsp;&lt;/font&gt;&lt;span style=&quot;background-color: initial;&quot;&gt;&lt;font color=&quot;#b266ff&quot;&gt;[900]&lt;/font&gt;&lt;/span&gt;&lt;br&gt;&lt;/div&gt;[&lt;font color=&quot;#ff3333&quot;&gt;NULL&amp;nbsp;&lt;/font&gt;&lt;font color=&quot;#ff3333&quot;&gt;NULL&lt;/font&gt;&lt;font color=&quot;#ff3333&quot;&gt;&amp;nbsp;&lt;/font&gt;&lt;font color=&quot;#ff3333&quot;&gt;NULL&lt;/font&gt;&amp;nbsp;&lt;font color=&quot;#ff3333&quot;&gt;NULL&lt;/font&gt;&lt;font color=&quot;#ff3333&quot;&gt;&amp;nbsp;&lt;/font&gt;&lt;font color=&quot;#ff3333&quot;&gt;NULL&lt;/font&gt;&amp;nbsp;&lt;font color=&quot;#ff3333&quot;&gt;NULL&lt;/font&gt;&amp;nbsp;&lt;font color=&quot;#ff3333&quot;&gt;NULL&lt;/font&gt;&amp;nbsp;&lt;font color=&quot;#ff3333&quot;&gt;NULL&lt;/font&gt;&amp;nbsp;&lt;font color=&quot;#ff3333&quot;&gt;NULL&lt;/font&gt;&amp;nbsp;&lt;font color=&quot;#ff3333&quot;&gt;NULL&lt;/font&gt;]" style="rounded=1;whiteSpace=wrap;html=1;align=left;spacingBottom=5;spacingLeft=5;spacingRight=5;spacingTop=5;spacing=5;" parent="1" vertex="1">
          <mxGeometry x="1895" y="760" width="359" height="50" as="geometry" />
        </mxCell>
        <mxCell id="j03V7xY_W4QlnJfzkWD_-218" style="edgeStyle=orthogonalEdgeStyle;rounded=0;orthogonalLoop=1;jettySize=auto;html=1;entryX=0.5;entryY=0;entryDx=0;entryDy=0;" parent="1" source="j03V7xY_W4QlnJfzkWD_-219" target="j03V7xY_W4QlnJfzkWD_-223" edge="1">
          <mxGeometry relative="1" as="geometry" />
        </mxCell>
        <mxCell id="j03V7xY_W4QlnJfzkWD_-219" value="&lt;div style=&quot;text-align: center;&quot;&gt;&lt;font style=&quot;font-size: 20px;&quot; color=&quot;#70f041&quot;&gt;1&amp;nbsp;&lt;/font&gt;&lt;span style=&quot;background-color: initial;&quot;&gt;&lt;font color=&quot;#b266ff&quot;&gt;[400]&lt;/font&gt;&lt;/span&gt;&lt;/div&gt;[&lt;font color=&quot;#ff3333&quot;&gt;NULL&amp;nbsp;&lt;/font&gt;&lt;font color=&quot;#ff3333&quot;&gt;NULL&lt;/font&gt;&lt;font color=&quot;#ff3333&quot;&gt;&amp;nbsp;&lt;/font&gt;&lt;font color=&quot;#ff3333&quot;&gt;NULL&lt;/font&gt;&amp;nbsp;&lt;font color=&quot;#ff3333&quot;&gt;NULL&lt;/font&gt;&lt;font color=&quot;#ff3333&quot;&gt;&amp;nbsp;&lt;/font&gt;&lt;font color=&quot;#ff3333&quot;&gt;NULL&lt;/font&gt;&amp;nbsp;&lt;font color=&quot;#ff3333&quot;&gt;NULL&lt;/font&gt;&amp;nbsp;&lt;font color=&quot;#ff3333&quot;&gt;NULL&lt;/font&gt;&amp;nbsp;&lt;font color=&quot;#ffffff&quot;&gt;700&lt;/font&gt;&amp;nbsp;&amp;nbsp;&lt;font color=&quot;#ff3333&quot;&gt;NULL&lt;/font&gt;&amp;nbsp;&lt;font color=&quot;#ff3333&quot;&gt;NULL&lt;/font&gt;]" style="rounded=1;whiteSpace=wrap;html=1;align=left;spacingBottom=5;spacingLeft=5;spacingRight=5;spacingTop=5;spacing=5;" parent="1" vertex="1">
          <mxGeometry x="2490" y="620" width="360" height="50" as="geometry" />
        </mxCell>
        <mxCell id="j03V7xY_W4QlnJfzkWD_-220" style="edgeStyle=orthogonalEdgeStyle;rounded=0;orthogonalLoop=1;jettySize=auto;html=1;entryX=0.5;entryY=0;entryDx=0;entryDy=0;" parent="1" source="j03V7xY_W4QlnJfzkWD_-221" target="j03V7xY_W4QlnJfzkWD_-225" edge="1">
          <mxGeometry relative="1" as="geometry" />
        </mxCell>
        <mxCell id="j03V7xY_W4QlnJfzkWD_-221" value="&lt;div style=&quot;text-align: center;&quot;&gt;&lt;font style=&quot;font-size: 20px;&quot; color=&quot;#70f041&quot;&gt;4&amp;nbsp;&lt;/font&gt;&lt;span style=&quot;background-color: initial;&quot;&gt;&lt;font color=&quot;#b266ff&quot;&gt;[500]&lt;/font&gt;&lt;/span&gt;&lt;/div&gt;[&lt;font color=&quot;#ff3333&quot;&gt;NULL&amp;nbsp;&lt;/font&gt;&lt;font color=&quot;#ff3333&quot;&gt;NULL&lt;/font&gt;&lt;font color=&quot;#ff3333&quot;&gt;&amp;nbsp;&lt;/font&gt;&lt;font color=&quot;#ff3333&quot;&gt;NULL&lt;/font&gt;&amp;nbsp;&lt;font color=&quot;#ff3333&quot;&gt;NULL&lt;/font&gt;&lt;font color=&quot;#ff3333&quot;&gt;&amp;nbsp;&lt;/font&gt;&lt;font color=&quot;#ff3333&quot;&gt;NULL&lt;/font&gt;&amp;nbsp;&lt;font color=&quot;#ff3333&quot;&gt;NULL&lt;/font&gt;&amp;nbsp;&lt;font color=&quot;#ff3333&quot;&gt;NULL&lt;/font&gt;&amp;nbsp;&lt;font color=&quot;#ffffff&quot;&gt;800&lt;/font&gt;&amp;nbsp;&lt;font color=&quot;#ff3333&quot;&gt;NULL&lt;/font&gt;&amp;nbsp;&lt;font color=&quot;#ff3333&quot;&gt;NULL&lt;/font&gt;]" style="rounded=1;whiteSpace=wrap;html=1;align=left;spacingBottom=5;spacingLeft=5;spacingRight=5;spacingTop=5;spacing=5;" parent="1" vertex="1">
          <mxGeometry x="3055" y="620" width="350" height="50" as="geometry" />
        </mxCell>
        <mxCell id="j03V7xY_W4QlnJfzkWD_-222" style="edgeStyle=orthogonalEdgeStyle;rounded=0;orthogonalLoop=1;jettySize=auto;html=1;entryX=0.5;entryY=0;entryDx=0;entryDy=0;" parent="1" source="j03V7xY_W4QlnJfzkWD_-223" target="j03V7xY_W4QlnJfzkWD_-227" edge="1">
          <mxGeometry relative="1" as="geometry" />
        </mxCell>
        <mxCell id="j03V7xY_W4QlnJfzkWD_-223" value="&lt;div style=&quot;text-align: center;&quot;&gt;&lt;font style=&quot;font-size: 20px;&quot; color=&quot;#70f041&quot;&gt;7&amp;nbsp;&lt;/font&gt;&lt;span style=&quot;background-color: initial;&quot;&gt;&lt;font color=&quot;#b266ff&quot;&gt;[700]&lt;/font&gt;&lt;/span&gt;&lt;/div&gt;[&lt;font color=&quot;#ff3333&quot;&gt;NULL&amp;nbsp;&lt;/font&gt;&lt;font color=&quot;#ff3333&quot;&gt;NULL&lt;/font&gt;&lt;font color=&quot;#ff3333&quot;&gt;&amp;nbsp;&lt;/font&gt;&lt;font color=&quot;#ffffff&quot;&gt;1000&lt;/font&gt;&amp;nbsp;&amp;nbsp;&lt;font color=&quot;#ff3333&quot;&gt;NULL&lt;/font&gt;&lt;font color=&quot;#ff3333&quot;&gt;&amp;nbsp;&lt;/font&gt;&lt;font color=&quot;#ff3333&quot;&gt;NULL&lt;/font&gt;&amp;nbsp;&lt;font color=&quot;#ff3333&quot;&gt;NULL&lt;/font&gt;&amp;nbsp;&lt;font color=&quot;#ff3333&quot;&gt;NULL&lt;/font&gt;&amp;nbsp;&lt;font color=&quot;#ff3333&quot;&gt;NULL&lt;/font&gt;&amp;nbsp;&lt;font color=&quot;#ff3333&quot;&gt;NULL&lt;/font&gt;&amp;nbsp;&lt;font color=&quot;#ff3333&quot;&gt;NULL&lt;/font&gt;]" style="rounded=1;whiteSpace=wrap;html=1;align=left;spacingBottom=5;spacingLeft=5;spacingRight=5;spacingTop=5;spacing=5;" parent="1" vertex="1">
          <mxGeometry x="2489" y="694" width="360" height="50" as="geometry" />
        </mxCell>
        <mxCell id="j03V7xY_W4QlnJfzkWD_-224" style="edgeStyle=orthogonalEdgeStyle;rounded=0;orthogonalLoop=1;jettySize=auto;html=1;entryX=0.5;entryY=0;entryDx=0;entryDy=0;" parent="1" source="j03V7xY_W4QlnJfzkWD_-225" target="j03V7xY_W4QlnJfzkWD_-229" edge="1">
          <mxGeometry relative="1" as="geometry" />
        </mxCell>
        <mxCell id="j03V7xY_W4QlnJfzkWD_-225" value="&lt;div style=&quot;text-align: center;&quot;&gt;&lt;font style=&quot;font-size: 20px;&quot; color=&quot;#70f041&quot;&gt;7&amp;nbsp;&lt;/font&gt;&lt;span style=&quot;background-color: initial;&quot;&gt;&lt;font color=&quot;#b266ff&quot;&gt;[800]&lt;/font&gt;&lt;/span&gt;&lt;/div&gt;[&lt;font color=&quot;#ffffff&quot;&gt;1100&lt;/font&gt;&lt;font color=&quot;#ff3333&quot;&gt;&amp;nbsp;&lt;/font&gt;&lt;font color=&quot;#ff3333&quot;&gt;NULL&lt;/font&gt;&lt;font color=&quot;#ff3333&quot;&gt;&amp;nbsp;&lt;/font&gt;&lt;font color=&quot;#ff3333&quot;&gt;NULL&lt;/font&gt;&amp;nbsp;&lt;font color=&quot;#ff3333&quot;&gt;NULL&lt;/font&gt;&lt;font color=&quot;#ff3333&quot;&gt;&amp;nbsp;&lt;/font&gt;&lt;font color=&quot;#ff3333&quot;&gt;NULL&lt;/font&gt;&amp;nbsp;&lt;font color=&quot;#ff3333&quot;&gt;NULL&lt;/font&gt;&amp;nbsp;&lt;font color=&quot;#ff3333&quot;&gt;NULL&lt;/font&gt;&amp;nbsp;&lt;font color=&quot;#ff3333&quot;&gt;NULL&lt;/font&gt;&amp;nbsp;&lt;font color=&quot;#ff3333&quot;&gt;NULL&lt;/font&gt;&amp;nbsp;&lt;font color=&quot;#ff3333&quot;&gt;NULL&lt;/font&gt;]" style="rounded=1;whiteSpace=wrap;html=1;align=left;spacingBottom=5;spacingLeft=5;spacingRight=5;spacingTop=5;spacing=5;" parent="1" vertex="1">
          <mxGeometry x="3050" y="691" width="360" height="50" as="geometry" />
        </mxCell>
        <mxCell id="j03V7xY_W4QlnJfzkWD_-226" style="edgeStyle=orthogonalEdgeStyle;rounded=0;orthogonalLoop=1;jettySize=auto;html=1;entryX=0.5;entryY=0;entryDx=0;entryDy=0;" parent="1" source="j03V7xY_W4QlnJfzkWD_-227" target="j03V7xY_W4QlnJfzkWD_-232" edge="1">
          <mxGeometry relative="1" as="geometry" />
        </mxCell>
        <mxCell id="j03V7xY_W4QlnJfzkWD_-227" value="&lt;div style=&quot;text-align: center;&quot;&gt;&lt;font style=&quot;font-size: 20px;&quot; color=&quot;#70f041&quot;&gt;2&amp;nbsp;&lt;/font&gt;&lt;span style=&quot;background-color: initial;&quot;&gt;&lt;font color=&quot;#b266ff&quot;&gt;[1000]&lt;/font&gt;&lt;/span&gt;&lt;/div&gt;[&lt;font color=&quot;#ff3333&quot;&gt;NULL&amp;nbsp;&lt;/font&gt;&lt;font color=&quot;#ff3333&quot;&gt;NULL&lt;/font&gt;&lt;font color=&quot;#ff3333&quot;&gt;&amp;nbsp;&lt;/font&gt;&lt;font color=&quot;#ff3333&quot;&gt;NULL&lt;/font&gt;&amp;nbsp;&lt;font color=&quot;#ff3333&quot;&gt;NULL&lt;/font&gt;&lt;font color=&quot;#ff3333&quot;&gt;&amp;nbsp;&lt;/font&gt;&lt;font color=&quot;#ff3333&quot;&gt;NULL&lt;/font&gt;&amp;nbsp;&lt;font color=&quot;#ff3333&quot;&gt;NULL&lt;/font&gt;&amp;nbsp;&lt;font color=&quot;#ffffff&quot;&gt;1200&lt;/font&gt;&amp;nbsp;&amp;nbsp;&lt;font color=&quot;#ff3333&quot;&gt;NULL&lt;/font&gt;&amp;nbsp;&lt;font color=&quot;#ff3333&quot;&gt;NULL&lt;/font&gt;&amp;nbsp;&lt;font color=&quot;#ff3333&quot;&gt;NULL&lt;/font&gt;]" style="rounded=1;whiteSpace=wrap;html=1;align=left;spacingBottom=5;spacingLeft=5;spacingRight=5;spacingTop=5;spacing=5;" parent="1" vertex="1">
          <mxGeometry x="2489" y="764" width="360" height="50" as="geometry" />
        </mxCell>
        <mxCell id="j03V7xY_W4QlnJfzkWD_-228" style="edgeStyle=orthogonalEdgeStyle;rounded=0;orthogonalLoop=1;jettySize=auto;html=1;entryX=0.5;entryY=0;entryDx=0;entryDy=0;" parent="1" source="j03V7xY_W4QlnJfzkWD_-229" target="j03V7xY_W4QlnJfzkWD_-233" edge="1">
          <mxGeometry relative="1" as="geometry" />
        </mxCell>
        <mxCell id="j03V7xY_W4QlnJfzkWD_-229" value="&lt;div style=&quot;text-align: center;&quot;&gt;&lt;font style=&quot;font-size: 20px;&quot; color=&quot;#70f041&quot;&gt;0&amp;nbsp;&lt;/font&gt;&lt;span style=&quot;background-color: initial;&quot;&gt;&lt;font color=&quot;#b266ff&quot;&gt;[1100]&lt;/font&gt;&lt;/span&gt;&lt;/div&gt;[&lt;font color=&quot;#ff3333&quot;&gt;NULL&amp;nbsp;&lt;/font&gt;&lt;font color=&quot;#ff3333&quot;&gt;NULL&lt;/font&gt;&lt;font color=&quot;#ff3333&quot;&gt;&amp;nbsp;&lt;/font&gt;&lt;font color=&quot;#ff3333&quot;&gt;NULL&lt;/font&gt;&amp;nbsp;&lt;font color=&quot;#ff3333&quot;&gt;NULL&lt;/font&gt;&lt;font color=&quot;#ff3333&quot;&gt;&amp;nbsp;&lt;/font&gt;&lt;font color=&quot;#ff3333&quot;&gt;NULL &lt;/font&gt;&lt;font color=&quot;#ffffff&quot;&gt;1300&lt;/font&gt;&amp;nbsp;&lt;font color=&quot;#ff3333&quot;&gt;NULL&lt;/font&gt;&amp;nbsp;&lt;font color=&quot;#ff3333&quot;&gt;NULL&lt;/font&gt;&amp;nbsp;&lt;font color=&quot;#ff3333&quot;&gt;NULL&lt;/font&gt;&amp;nbsp;&lt;font color=&quot;#ff3333&quot;&gt;NULL&lt;/font&gt;]" style="rounded=1;whiteSpace=wrap;html=1;align=left;spacingBottom=5;spacingLeft=5;spacingRight=5;spacingTop=5;spacing=5;" parent="1" vertex="1">
          <mxGeometry x="3050" y="762" width="360" height="50" as="geometry" />
        </mxCell>
        <mxCell id="j03V7xY_W4QlnJfzkWD_-230" style="edgeStyle=orthogonalEdgeStyle;rounded=0;orthogonalLoop=1;jettySize=auto;html=1;entryX=0.5;entryY=0;entryDx=0;entryDy=0;" parent="1" source="j03V7xY_W4QlnJfzkWD_-232" target="j03V7xY_W4QlnJfzkWD_-237" edge="1">
          <mxGeometry relative="1" as="geometry" />
        </mxCell>
        <mxCell id="j03V7xY_W4QlnJfzkWD_-231" style="edgeStyle=orthogonalEdgeStyle;rounded=0;orthogonalLoop=1;jettySize=auto;html=1;" parent="1" source="j03V7xY_W4QlnJfzkWD_-232" target="j03V7xY_W4QlnJfzkWD_-235" edge="1">
          <mxGeometry relative="1" as="geometry" />
        </mxCell>
        <mxCell id="j03V7xY_W4QlnJfzkWD_-232" value="&lt;div style=&quot;text-align: center;&quot;&gt;&lt;font style=&quot;font-size: 20px;&quot; color=&quot;#70f041&quot;&gt;6&amp;nbsp;&lt;/font&gt;&lt;span style=&quot;background-color: initial;&quot;&gt;&lt;font color=&quot;#b266ff&quot;&gt;[1200]&lt;/font&gt;&lt;/span&gt;&lt;/div&gt;[&lt;font color=&quot;#ff3333&quot;&gt;NULL&amp;nbsp;&lt;/font&gt;&lt;font color=&quot;#ff3333&quot;&gt;NULL&lt;/font&gt;&lt;font color=&quot;#ff3333&quot;&gt;&amp;nbsp;&lt;/font&gt;&lt;font color=&quot;#ffffff&quot;&gt;1400&amp;nbsp;&lt;/font&gt;&lt;font color=&quot;#ff3333&quot;&gt;NULL&lt;/font&gt;&lt;font color=&quot;#ff3333&quot;&gt;&amp;nbsp;&lt;/font&gt;&lt;font color=&quot;#ff3333&quot;&gt;NULL&lt;/font&gt;&amp;nbsp;&lt;font color=&quot;#ff3333&quot;&gt;NULL&lt;/font&gt;&amp;nbsp;&lt;font color=&quot;#ff3333&quot;&gt;NULL&lt;/font&gt;&amp;nbsp;&lt;font color=&quot;#ff3333&quot;&gt;NULL&lt;/font&gt;&amp;nbsp;&lt;font color=&quot;#ff3333&quot;&gt;NULL&lt;/font&gt;&amp;nbsp;&lt;font color=&quot;#ffffff&quot;&gt;1500&lt;/font&gt;]" style="rounded=1;whiteSpace=wrap;html=1;align=left;spacingBottom=5;spacingLeft=5;spacingRight=5;spacingTop=5;spacing=5;" parent="1" vertex="1">
          <mxGeometry x="2487" y="833" width="363" height="50" as="geometry" />
        </mxCell>
        <mxCell id="j03V7xY_W4QlnJfzkWD_-233" value="&lt;div style=&quot;text-align: center;&quot;&gt;&lt;font style=&quot;font-size: 20px;&quot; color=&quot;#70f041&quot;&gt;5&amp;nbsp;&lt;/font&gt;&lt;span style=&quot;background-color: initial;&quot;&gt;&lt;font color=&quot;#b266ff&quot;&gt;[1300]&lt;/font&gt;&lt;/span&gt;&lt;/div&gt;[&lt;font color=&quot;#ff3333&quot;&gt;NULL&amp;nbsp;&lt;/font&gt;&lt;font color=&quot;#ff3333&quot;&gt;NULL&lt;/font&gt;&lt;font color=&quot;#ff3333&quot;&gt;&amp;nbsp;&lt;/font&gt;&lt;font color=&quot;#ff3333&quot;&gt;NULL&lt;/font&gt;&amp;nbsp;&lt;font color=&quot;#ff3333&quot;&gt;NULL&lt;/font&gt;&lt;font color=&quot;#ff3333&quot;&gt;&amp;nbsp;&lt;/font&gt;&lt;font color=&quot;#ff3333&quot;&gt;NULL&lt;/font&gt;&amp;nbsp;&lt;font color=&quot;#ff3333&quot;&gt;NULL&lt;/font&gt;&amp;nbsp;&lt;font color=&quot;#ff3333&quot;&gt;NULL&lt;/font&gt;&amp;nbsp;&lt;font color=&quot;#ff3333&quot;&gt;NULL&lt;/font&gt;&amp;nbsp;&lt;font color=&quot;#ff3333&quot;&gt;NULL&lt;/font&gt;&amp;nbsp;&lt;font color=&quot;#ff3333&quot;&gt;NULL&lt;/font&gt;]" style="rounded=1;whiteSpace=wrap;html=1;align=left;spacingBottom=5;spacingLeft=5;spacingRight=5;spacingTop=5;spacing=5;" parent="1" vertex="1">
          <mxGeometry x="3050" y="837" width="360" height="50" as="geometry" />
        </mxCell>
        <mxCell id="j03V7xY_W4QlnJfzkWD_-234" style="edgeStyle=orthogonalEdgeStyle;rounded=0;orthogonalLoop=1;jettySize=auto;html=1;entryX=0.5;entryY=0;entryDx=0;entryDy=0;" parent="1" source="j03V7xY_W4QlnJfzkWD_-235" target="j03V7xY_W4QlnJfzkWD_-239" edge="1">
          <mxGeometry relative="1" as="geometry" />
        </mxCell>
        <mxCell id="j03V7xY_W4QlnJfzkWD_-235" value="&lt;div style=&quot;text-align: center;&quot;&gt;&lt;font style=&quot;font-size: 20px;&quot; color=&quot;#70f041&quot;&gt;2&amp;nbsp;&lt;/font&gt;&lt;span style=&quot;background-color: initial;&quot;&gt;&lt;font color=&quot;#b266ff&quot;&gt;[1400]&lt;/font&gt;&lt;/span&gt;&lt;/div&gt;[&lt;font color=&quot;#ff3333&quot;&gt;NULL &lt;/font&gt;&lt;font color=&quot;#ffffff&quot;&gt;1600&amp;nbsp;&lt;/font&gt;&lt;font color=&quot;#ff3333&quot;&gt;&amp;nbsp;&lt;/font&gt;&lt;font color=&quot;#ff3333&quot;&gt;NULL&lt;/font&gt;&amp;nbsp;&lt;font color=&quot;#ff3333&quot;&gt;NULL&lt;/font&gt;&lt;font color=&quot;#ff3333&quot;&gt;&amp;nbsp;&lt;/font&gt;&lt;font color=&quot;#ff3333&quot;&gt;NULL&lt;/font&gt;&amp;nbsp;&lt;font color=&quot;#ff3333&quot;&gt;NULL&lt;/font&gt;&amp;nbsp;&lt;font color=&quot;#ff3333&quot;&gt;NULL&lt;/font&gt;&amp;nbsp;&lt;font color=&quot;#ff3333&quot;&gt;NULL&lt;/font&gt;&amp;nbsp;&lt;font color=&quot;#ff3333&quot;&gt;NULL&lt;/font&gt;&amp;nbsp;&lt;font color=&quot;#ff3333&quot;&gt;NULL&lt;/font&gt;]" style="rounded=1;whiteSpace=wrap;html=1;align=left;spacingBottom=5;spacingLeft=5;spacingRight=5;spacingTop=5;spacing=5;" parent="1" vertex="1">
          <mxGeometry x="2283.5" y="921" width="370" height="50" as="geometry" />
        </mxCell>
        <mxCell id="j03V7xY_W4QlnJfzkWD_-236" style="edgeStyle=orthogonalEdgeStyle;rounded=0;orthogonalLoop=1;jettySize=auto;html=1;entryX=0.5;entryY=0;entryDx=0;entryDy=0;" parent="1" source="j03V7xY_W4QlnJfzkWD_-237" target="j03V7xY_W4QlnJfzkWD_-243" edge="1">
          <mxGeometry relative="1" as="geometry" />
        </mxCell>
        <mxCell id="j03V7xY_W4QlnJfzkWD_-237" value="&lt;div style=&quot;text-align: center;&quot;&gt;&lt;font style=&quot;font-size: 20px;&quot; color=&quot;#70f041&quot;&gt;9&amp;nbsp;&lt;/font&gt;&lt;span style=&quot;background-color: initial;&quot;&gt;&lt;font color=&quot;#b266ff&quot;&gt;[1500]&lt;/font&gt;&lt;/span&gt;&lt;/div&gt;[&lt;font color=&quot;#ff3333&quot;&gt;NULL&amp;nbsp;&lt;/font&gt;&lt;font color=&quot;#ff3333&quot;&gt;NULL&lt;/font&gt;&lt;font color=&quot;#ff3333&quot;&gt;&amp;nbsp;&lt;/font&gt;&lt;font color=&quot;#ff3333&quot;&gt;NULL&lt;/font&gt;&amp;nbsp;&lt;font color=&quot;#ff3333&quot;&gt;NULL&lt;/font&gt;&lt;font color=&quot;#ff3333&quot;&gt;&amp;nbsp;&lt;/font&gt;&lt;font color=&quot;#ff3333&quot;&gt;NULL&lt;/font&gt;&amp;nbsp;&lt;font color=&quot;#ff3333&quot;&gt;NULL&lt;/font&gt;&amp;nbsp;&lt;font color=&quot;#ff3333&quot;&gt;NULL&lt;/font&gt;&amp;nbsp;&lt;font color=&quot;#ff3333&quot;&gt;NULL&lt;/font&gt;&amp;nbsp;&lt;font color=&quot;#ff3333&quot;&gt;NULL&lt;/font&gt;&amp;nbsp;&lt;font color=&quot;#ff3333&quot;&gt;NULL&lt;/font&gt;]" style="rounded=1;whiteSpace=wrap;html=1;align=left;spacingBottom=5;spacingLeft=5;spacingRight=5;spacingTop=5;spacing=5;" parent="1" vertex="1">
          <mxGeometry x="2670" y="921" width="360" height="50" as="geometry" />
        </mxCell>
        <mxCell id="j03V7xY_W4QlnJfzkWD_-238" style="edgeStyle=orthogonalEdgeStyle;rounded=0;orthogonalLoop=1;jettySize=auto;html=1;entryX=0.5;entryY=0;entryDx=0;entryDy=0;" parent="1" source="j03V7xY_W4QlnJfzkWD_-239" target="j03V7xY_W4QlnJfzkWD_-242" edge="1">
          <mxGeometry relative="1" as="geometry" />
        </mxCell>
        <mxCell id="j03V7xY_W4QlnJfzkWD_-239" value="&lt;div style=&quot;text-align: center;&quot;&gt;&lt;font style=&quot;font-size: 20px;&quot; color=&quot;#70f041&quot;&gt;1&amp;nbsp;&lt;/font&gt;&lt;span style=&quot;background-color: initial;&quot;&gt;&lt;font color=&quot;#b266ff&quot;&gt;[1600]&lt;/font&gt;&lt;/span&gt;&lt;/div&gt;[&lt;font color=&quot;#ff3333&quot;&gt;NULL&amp;nbsp;&lt;/font&gt;&lt;font color=&quot;#ff3333&quot;&gt;NULL&lt;/font&gt;&lt;font color=&quot;#ff3333&quot;&gt;&amp;nbsp;&lt;/font&gt;&lt;font color=&quot;#ff3333&quot;&gt;NULL&lt;/font&gt;&amp;nbsp;&lt;font color=&quot;#ff3333&quot;&gt;NULL&lt;/font&gt;&lt;font color=&quot;#ff3333&quot;&gt;&amp;nbsp;&lt;/font&gt;&lt;font color=&quot;#ff3333&quot;&gt;NULL&lt;/font&gt;&amp;nbsp;&lt;font color=&quot;#ff3333&quot;&gt;NULL&lt;/font&gt;&amp;nbsp;&lt;font color=&quot;#ff3333&quot;&gt;NULL&lt;/font&gt;&amp;nbsp;&lt;font color=&quot;#ff3333&quot;&gt;NULL&amp;nbsp;&lt;/font&gt;&lt;font color=&quot;#ff3333&quot;&gt;NULL&amp;nbsp;&lt;/font&gt;&lt;font color=&quot;#ff3333&quot;&gt;NULLL&lt;/font&gt;]" style="rounded=1;whiteSpace=wrap;html=1;align=left;spacingBottom=5;spacingLeft=5;spacingRight=5;spacingTop=5;spacing=5;" parent="1" vertex="1">
          <mxGeometry x="2285" y="989" width="370" height="50" as="geometry" />
        </mxCell>
        <mxCell id="j03V7xY_W4QlnJfzkWD_-241" value="&lt;div style=&quot;font-size: 34px;&quot;&gt;&lt;font style=&quot;font-size: 34px;&quot; color=&quot;#70f041&quot;&gt;2-6-8-0&lt;/font&gt;&lt;/div&gt;" style="rounded=1;whiteSpace=wrap;html=1;align=center;spacingBottom=5;spacingLeft=5;spacingRight=5;spacingTop=5;spacing=5;fontSize=34;" parent="1" vertex="1">
          <mxGeometry x="1895" y="830" width="359" height="40" as="geometry" />
        </mxCell>
        <mxCell id="j03V7xY_W4QlnJfzkWD_-242" value="&lt;div style=&quot;font-size: 34px;&quot;&gt;&lt;font style=&quot;font-size: 34px;&quot; color=&quot;#70f041&quot;&gt;4-1-7-2-6-2-1&lt;/font&gt;&lt;/div&gt;" style="rounded=1;whiteSpace=wrap;html=1;align=center;spacingBottom=5;spacingLeft=5;spacingRight=5;spacingTop=5;spacing=5;fontSize=34;" parent="1" vertex="1">
          <mxGeometry x="2282" y="1061" width="376" height="40" as="geometry" />
        </mxCell>
        <mxCell id="j03V7xY_W4QlnJfzkWD_-243" value="&lt;div style=&quot;font-size: 34px;&quot;&gt;&lt;font style=&quot;font-size: 34px;&quot; color=&quot;#70f041&quot;&gt;4-1-7-2-6-9&lt;/font&gt;&lt;/div&gt;" style="rounded=1;whiteSpace=wrap;html=1;align=center;spacingBottom=5;spacingLeft=5;spacingRight=5;spacingTop=5;spacing=5;fontSize=34;" parent="1" vertex="1">
          <mxGeometry x="2671" y="994" width="359" height="40" as="geometry" />
        </mxCell>
        <mxCell id="j03V7xY_W4QlnJfzkWD_-244" value="&lt;div style=&quot;font-size: 34px;&quot;&gt;&lt;font style=&quot;font-size: 34px;&quot; color=&quot;#70f041&quot;&gt;4-4-7-0-5&lt;/font&gt;&lt;/div&gt;" style="rounded=1;whiteSpace=wrap;html=1;align=center;spacingBottom=5;spacingLeft=5;spacingRight=5;spacingTop=5;spacing=5;fontSize=34;" parent="1" vertex="1">
          <mxGeometry x="3053" y="920" width="359" height="40" as="geometry" />
        </mxCell>
        <mxCell id="j03V7xY_W4QlnJfzkWD_-245" style="edgeStyle=orthogonalEdgeStyle;rounded=0;orthogonalLoop=1;jettySize=auto;html=1;entryX=0.488;entryY=-0.022;entryDx=0;entryDy=0;entryPerimeter=0;" parent="1" source="j03V7xY_W4QlnJfzkWD_-233" target="j03V7xY_W4QlnJfzkWD_-244" edge="1">
          <mxGeometry relative="1" as="geometry" />
        </mxCell>
        <mxCell id="j03V7xY_W4QlnJfzkWD_-253" value="" style="group" parent="1" vertex="1" connectable="0">
          <mxGeometry x="1860" y="1220" width="293" height="30" as="geometry" />
        </mxCell>
        <mxCell id="j03V7xY_W4QlnJfzkWD_-152" value="4444" style="rounded=1;whiteSpace=wrap;html=1;fillColor=#a20025;fontColor=#ffffff;strokeColor=#6F0000;" parent="j03V7xY_W4QlnJfzkWD_-253" vertex="1">
          <mxGeometry width="66" height="30" as="geometry" />
        </mxCell>
        <mxCell id="j03V7xY_W4QlnJfzkWD_-153" value="55555" style="rounded=1;whiteSpace=wrap;html=1;fillColor=#a20025;fontColor=#ffffff;strokeColor=#6F0000;" parent="j03V7xY_W4QlnJfzkWD_-253" vertex="1">
          <mxGeometry x="76" width="66" height="30" as="geometry" />
        </mxCell>
        <mxCell id="j03V7xY_W4QlnJfzkWD_-154" value="666666" style="rounded=1;whiteSpace=wrap;html=1;fillColor=#a20025;fontColor=#ffffff;strokeColor=#6F0000;" parent="j03V7xY_W4QlnJfzkWD_-253" vertex="1">
          <mxGeometry x="152" width="66" height="30" as="geometry" />
        </mxCell>
        <mxCell id="j03V7xY_W4QlnJfzkWD_-155" value="777777" style="rounded=1;whiteSpace=wrap;html=1;fillColor=#a20025;fontColor=#ffffff;strokeColor=#6F0000;" parent="j03V7xY_W4QlnJfzkWD_-253" vertex="1">
          <mxGeometry x="227" width="66" height="30" as="geometry" />
        </mxCell>
        <mxCell id="j03V7xY_W4QlnJfzkWD_-255" value="" style="group" parent="1" vertex="1" connectable="0">
          <mxGeometry x="1865" y="-229.5" width="1091" height="623" as="geometry" />
        </mxCell>
        <mxCell id="j03V7xY_W4QlnJfzkWD_-35" value="4" style="ellipse;whiteSpace=wrap;html=1;fillColor=#0050ef;fontColor=#ffffff;strokeColor=#FFFFFF;" parent="j03V7xY_W4QlnJfzkWD_-255" vertex="1">
          <mxGeometry x="79" y="90" width="50" height="50" as="geometry" />
        </mxCell>
        <mxCell id="j03V7xY_W4QlnJfzkWD_-72" style="edgeStyle=orthogonalEdgeStyle;rounded=0;orthogonalLoop=1;jettySize=auto;html=1;exitX=0.5;exitY=1;exitDx=0;exitDy=0;fillColor=#0050ef;strokeColor=#FFFFFF;" parent="j03V7xY_W4QlnJfzkWD_-255" source="j03V7xY_W4QlnJfzkWD_-36" target="j03V7xY_W4QlnJfzkWD_-35" edge="1">
          <mxGeometry relative="1" as="geometry" />
        </mxCell>
        <mxCell id="j03V7xY_W4QlnJfzkWD_-36" value="root" style="ellipse;whiteSpace=wrap;html=1;fillColor=#0050ef;fontColor=#ffffff;strokeColor=#000000;strokeWidth=5;" parent="j03V7xY_W4QlnJfzkWD_-255" vertex="1">
          <mxGeometry x="435" width="50" height="50" as="geometry" />
        </mxCell>
        <mxCell id="j03V7xY_W4QlnJfzkWD_-37" value="5" style="ellipse;whiteSpace=wrap;html=1;fillColor=#0050ef;fontColor=#ffffff;strokeColor=#000000;strokeWidth=5;" parent="j03V7xY_W4QlnJfzkWD_-255" vertex="1">
          <mxGeometry x="320" y="90" width="50" height="50" as="geometry" />
        </mxCell>
        <mxCell id="j03V7xY_W4QlnJfzkWD_-71" style="edgeStyle=orthogonalEdgeStyle;rounded=0;orthogonalLoop=1;jettySize=auto;html=1;entryX=0.5;entryY=0;entryDx=0;entryDy=0;exitX=0.5;exitY=1;exitDx=0;exitDy=0;fillColor=#0050ef;strokeColor=#000000;strokeWidth=5;" parent="j03V7xY_W4QlnJfzkWD_-255" source="j03V7xY_W4QlnJfzkWD_-36" target="j03V7xY_W4QlnJfzkWD_-37" edge="1">
          <mxGeometry relative="1" as="geometry" />
        </mxCell>
        <mxCell id="j03V7xY_W4QlnJfzkWD_-38" value="6" style="ellipse;whiteSpace=wrap;html=1;fillColor=#0050ef;fontColor=#ffffff;strokeColor=#FFFFFF;" parent="j03V7xY_W4QlnJfzkWD_-255" vertex="1">
          <mxGeometry x="721" y="90" width="50" height="50" as="geometry" />
        </mxCell>
        <mxCell id="j03V7xY_W4QlnJfzkWD_-73" style="edgeStyle=orthogonalEdgeStyle;rounded=0;orthogonalLoop=1;jettySize=auto;html=1;exitX=0.5;exitY=1;exitDx=0;exitDy=0;fillColor=#0050ef;strokeColor=#FFFFFF;" parent="j03V7xY_W4QlnJfzkWD_-255" source="j03V7xY_W4QlnJfzkWD_-36" target="j03V7xY_W4QlnJfzkWD_-38" edge="1">
          <mxGeometry relative="1" as="geometry" />
        </mxCell>
        <mxCell id="j03V7xY_W4QlnJfzkWD_-106" style="edgeStyle=orthogonalEdgeStyle;rounded=0;orthogonalLoop=1;jettySize=auto;html=1;exitX=0.5;exitY=1;exitDx=0;exitDy=0;fillColor=#0050ef;strokeColor=#FFFFFF;" parent="j03V7xY_W4QlnJfzkWD_-255" source="j03V7xY_W4QlnJfzkWD_-39" edge="1">
          <mxGeometry relative="1" as="geometry">
            <mxPoint x="946" y="170" as="targetPoint" />
          </mxGeometry>
        </mxCell>
        <mxCell id="j03V7xY_W4QlnJfzkWD_-39" value="7" style="ellipse;whiteSpace=wrap;html=1;fillColor=#0050ef;fontColor=#ffffff;strokeColor=#FFFFFF;" parent="j03V7xY_W4QlnJfzkWD_-255" vertex="1">
          <mxGeometry x="921" y="93" width="50" height="50" as="geometry" />
        </mxCell>
        <mxCell id="j03V7xY_W4QlnJfzkWD_-74" style="edgeStyle=orthogonalEdgeStyle;rounded=0;orthogonalLoop=1;jettySize=auto;html=1;exitX=0.5;exitY=1;exitDx=0;exitDy=0;fillColor=#0050ef;strokeColor=#FFFFFF;" parent="j03V7xY_W4QlnJfzkWD_-255" source="j03V7xY_W4QlnJfzkWD_-36" target="j03V7xY_W4QlnJfzkWD_-39" edge="1">
          <mxGeometry relative="1" as="geometry">
            <Array as="points">
              <mxPoint x="460" y="70" />
              <mxPoint x="946" y="70" />
            </Array>
          </mxGeometry>
        </mxCell>
        <mxCell id="j03V7xY_W4QlnJfzkWD_-95" style="edgeStyle=orthogonalEdgeStyle;rounded=0;orthogonalLoop=1;jettySize=auto;html=1;exitX=0.5;exitY=1;exitDx=0;exitDy=0;fillColor=#0050ef;strokeColor=#FFFFFF;" parent="j03V7xY_W4QlnJfzkWD_-255" source="j03V7xY_W4QlnJfzkWD_-40" edge="1">
          <mxGeometry relative="1" as="geometry">
            <mxPoint x="105" y="250" as="targetPoint" />
          </mxGeometry>
        </mxCell>
        <mxCell id="j03V7xY_W4QlnJfzkWD_-40" value="4" style="ellipse;whiteSpace=wrap;html=1;fillColor=#0050ef;fontColor=#ffffff;strokeColor=#FFFFFF;" parent="j03V7xY_W4QlnJfzkWD_-255" vertex="1">
          <mxGeometry x="80" y="174" width="50" height="50" as="geometry" />
        </mxCell>
        <mxCell id="j03V7xY_W4QlnJfzkWD_-126" style="edgeStyle=orthogonalEdgeStyle;rounded=0;orthogonalLoop=1;jettySize=auto;html=1;exitX=0.5;exitY=1;exitDx=0;exitDy=0;entryX=0.5;entryY=0;entryDx=0;entryDy=0;fillColor=#0050ef;strokeColor=#FFFFFF;" parent="j03V7xY_W4QlnJfzkWD_-255" source="j03V7xY_W4QlnJfzkWD_-35" target="j03V7xY_W4QlnJfzkWD_-40" edge="1">
          <mxGeometry relative="1" as="geometry" />
        </mxCell>
        <mxCell id="j03V7xY_W4QlnJfzkWD_-42" value="5" style="ellipse;whiteSpace=wrap;html=1;fillColor=#0050ef;fontColor=#ffffff;strokeColor=#000000;strokeWidth=5;" parent="j03V7xY_W4QlnJfzkWD_-255" vertex="1">
          <mxGeometry x="521" y="174" width="50" height="50" as="geometry" />
        </mxCell>
        <mxCell id="j03V7xY_W4QlnJfzkWD_-84" style="edgeStyle=orthogonalEdgeStyle;rounded=0;orthogonalLoop=1;jettySize=auto;html=1;exitX=0.5;exitY=1;exitDx=0;exitDy=0;entryX=0.5;entryY=0;entryDx=0;entryDy=0;fillColor=#0050ef;strokeColor=#000000;strokeWidth=5;" parent="j03V7xY_W4QlnJfzkWD_-255" source="j03V7xY_W4QlnJfzkWD_-37" target="j03V7xY_W4QlnJfzkWD_-42" edge="1">
          <mxGeometry relative="1" as="geometry" />
        </mxCell>
        <mxCell id="j03V7xY_W4QlnJfzkWD_-43" value="7" style="ellipse;whiteSpace=wrap;html=1;fillColor=#0050ef;fontColor=#ffffff;strokeColor=#000000;strokeWidth=5;" parent="j03V7xY_W4QlnJfzkWD_-255" vertex="1">
          <mxGeometry x="280" y="170" width="50" height="50" as="geometry" />
        </mxCell>
        <mxCell id="j03V7xY_W4QlnJfzkWD_-76" style="edgeStyle=orthogonalEdgeStyle;rounded=0;orthogonalLoop=1;jettySize=auto;html=1;exitX=0.5;exitY=1;exitDx=0;exitDy=0;entryX=0.5;entryY=0;entryDx=0;entryDy=0;fillColor=#0050ef;strokeColor=#000000;strokeWidth=5;" parent="j03V7xY_W4QlnJfzkWD_-255" source="j03V7xY_W4QlnJfzkWD_-37" target="j03V7xY_W4QlnJfzkWD_-43" edge="1">
          <mxGeometry relative="1" as="geometry" />
        </mxCell>
        <mxCell id="j03V7xY_W4QlnJfzkWD_-44" value="6" style="ellipse;whiteSpace=wrap;html=1;fillColor=#0050ef;fontColor=#ffffff;strokeColor=#FFFFFF;" parent="j03V7xY_W4QlnJfzkWD_-255" vertex="1">
          <mxGeometry x="721" y="174" width="50" height="50" as="geometry" />
        </mxCell>
        <mxCell id="j03V7xY_W4QlnJfzkWD_-100" style="edgeStyle=orthogonalEdgeStyle;rounded=0;orthogonalLoop=1;jettySize=auto;html=1;exitX=0.5;exitY=1;exitDx=0;exitDy=0;entryX=0.5;entryY=0;entryDx=0;entryDy=0;fillColor=#0050ef;strokeColor=#FFFFFF;" parent="j03V7xY_W4QlnJfzkWD_-255" source="j03V7xY_W4QlnJfzkWD_-38" target="j03V7xY_W4QlnJfzkWD_-44" edge="1">
          <mxGeometry relative="1" as="geometry" />
        </mxCell>
        <mxCell id="j03V7xY_W4QlnJfzkWD_-45" value="6" style="ellipse;whiteSpace=wrap;html=1;fillColor=#0050ef;fontColor=#ffffff;strokeColor=#FFFFFF;" parent="j03V7xY_W4QlnJfzkWD_-255" vertex="1">
          <mxGeometry x="920" y="174" width="50" height="50" as="geometry" />
        </mxCell>
        <mxCell id="j03V7xY_W4QlnJfzkWD_-46" value="7" style="ellipse;whiteSpace=wrap;html=1;fillColor=#0050ef;fontColor=#ffffff;strokeColor=#FFFFFF;" parent="j03V7xY_W4QlnJfzkWD_-255" vertex="1">
          <mxGeometry x="839" y="174" width="50" height="50" as="geometry" />
        </mxCell>
        <mxCell id="j03V7xY_W4QlnJfzkWD_-105" style="edgeStyle=orthogonalEdgeStyle;rounded=0;orthogonalLoop=1;jettySize=auto;html=1;exitX=0.5;exitY=1;exitDx=0;exitDy=0;entryX=0.5;entryY=0;entryDx=0;entryDy=0;fillColor=#0050ef;strokeColor=#FFFFFF;" parent="j03V7xY_W4QlnJfzkWD_-255" source="j03V7xY_W4QlnJfzkWD_-39" target="j03V7xY_W4QlnJfzkWD_-46" edge="1">
          <mxGeometry relative="1" as="geometry" />
        </mxCell>
        <mxCell id="j03V7xY_W4QlnJfzkWD_-47" value="8" style="ellipse;whiteSpace=wrap;html=1;fillColor=#0050ef;fontColor=#ffffff;strokeColor=#FFFFFF;" parent="j03V7xY_W4QlnJfzkWD_-255" vertex="1">
          <mxGeometry x="1001" y="174" width="50" height="50" as="geometry" />
        </mxCell>
        <mxCell id="j03V7xY_W4QlnJfzkWD_-107" style="edgeStyle=orthogonalEdgeStyle;rounded=0;orthogonalLoop=1;jettySize=auto;html=1;exitX=0.5;exitY=1;exitDx=0;exitDy=0;entryX=0.5;entryY=0;entryDx=0;entryDy=0;fillColor=#0050ef;strokeColor=#FFFFFF;" parent="j03V7xY_W4QlnJfzkWD_-255" source="j03V7xY_W4QlnJfzkWD_-39" target="j03V7xY_W4QlnJfzkWD_-47" edge="1">
          <mxGeometry relative="1" as="geometry">
            <mxPoint x="1026" y="174" as="targetPoint" />
          </mxGeometry>
        </mxCell>
        <mxCell id="j03V7xY_W4QlnJfzkWD_-96" style="edgeStyle=orthogonalEdgeStyle;rounded=0;orthogonalLoop=1;jettySize=auto;html=1;exitX=0.5;exitY=1;exitDx=0;exitDy=0;fillColor=#0050ef;strokeColor=#FFFFFF;" parent="j03V7xY_W4QlnJfzkWD_-255" source="j03V7xY_W4QlnJfzkWD_-49" edge="1">
          <mxGeometry relative="1" as="geometry">
            <mxPoint x="105" y="330" as="targetPoint" />
          </mxGeometry>
        </mxCell>
        <mxCell id="j03V7xY_W4QlnJfzkWD_-49" value="3" style="ellipse;whiteSpace=wrap;html=1;fillColor=#0050ef;fontColor=#ffffff;strokeColor=#FFFFFF;" parent="j03V7xY_W4QlnJfzkWD_-255" vertex="1">
          <mxGeometry x="80" y="254" width="50" height="50" as="geometry" />
        </mxCell>
        <mxCell id="j03V7xY_W4QlnJfzkWD_-50" value="4" style="ellipse;whiteSpace=wrap;html=1;fillColor=#0050ef;fontColor=#ffffff;strokeColor=#FFFFFF;" parent="j03V7xY_W4QlnJfzkWD_-255" vertex="1">
          <mxGeometry y="334" width="50" height="50" as="geometry" />
        </mxCell>
        <mxCell id="j03V7xY_W4QlnJfzkWD_-99" style="edgeStyle=orthogonalEdgeStyle;rounded=0;orthogonalLoop=1;jettySize=auto;html=1;exitX=0.5;exitY=1;exitDx=0;exitDy=0;fillColor=#0050ef;strokeColor=#FFFFFF;" parent="j03V7xY_W4QlnJfzkWD_-255" source="j03V7xY_W4QlnJfzkWD_-51" edge="1">
          <mxGeometry relative="1" as="geometry">
            <mxPoint x="25" y="330" as="targetPoint" />
          </mxGeometry>
        </mxCell>
        <mxCell id="j03V7xY_W4QlnJfzkWD_-51" value="4" style="ellipse;whiteSpace=wrap;html=1;fillColor=#0050ef;fontColor=#ffffff;strokeColor=#FFFFFF;" parent="j03V7xY_W4QlnJfzkWD_-255" vertex="1">
          <mxGeometry y="254" width="50" height="50" as="geometry" />
        </mxCell>
        <mxCell id="j03V7xY_W4QlnJfzkWD_-98" style="edgeStyle=orthogonalEdgeStyle;rounded=0;orthogonalLoop=1;jettySize=auto;html=1;exitX=0.5;exitY=1;exitDx=0;exitDy=0;entryX=0.5;entryY=0;entryDx=0;entryDy=0;fillColor=#0050ef;strokeColor=#FFFFFF;" parent="j03V7xY_W4QlnJfzkWD_-255" source="j03V7xY_W4QlnJfzkWD_-40" target="j03V7xY_W4QlnJfzkWD_-51" edge="1">
          <mxGeometry relative="1" as="geometry" />
        </mxCell>
        <mxCell id="j03V7xY_W4QlnJfzkWD_-52" value="7" style="ellipse;whiteSpace=wrap;html=1;fillColor=#0050ef;fontColor=#ffffff;strokeColor=#FFFFFF;" parent="j03V7xY_W4QlnJfzkWD_-255" vertex="1">
          <mxGeometry x="281" y="250" width="50" height="50" as="geometry" />
        </mxCell>
        <mxCell id="j03V7xY_W4QlnJfzkWD_-77" style="edgeStyle=orthogonalEdgeStyle;rounded=0;orthogonalLoop=1;jettySize=auto;html=1;exitX=0.5;exitY=1;exitDx=0;exitDy=0;entryX=0.5;entryY=0;entryDx=0;entryDy=0;fillColor=#0050ef;strokeColor=#000000;strokeWidth=5;" parent="j03V7xY_W4QlnJfzkWD_-255" source="j03V7xY_W4QlnJfzkWD_-43" target="j03V7xY_W4QlnJfzkWD_-52" edge="1">
          <mxGeometry relative="1" as="geometry" />
        </mxCell>
        <mxCell id="j03V7xY_W4QlnJfzkWD_-53" value="8" style="ellipse;whiteSpace=wrap;html=1;fillColor=#0050ef;fontColor=#ffffff;strokeColor=#FFFFFF;" parent="j03V7xY_W4QlnJfzkWD_-255" vertex="1">
          <mxGeometry x="281" y="330" width="50" height="50" as="geometry" />
        </mxCell>
        <mxCell id="j03V7xY_W4QlnJfzkWD_-78" style="edgeStyle=orthogonalEdgeStyle;rounded=0;orthogonalLoop=1;jettySize=auto;html=1;exitX=0.5;exitY=1;exitDx=0;exitDy=0;entryX=0.5;entryY=0;entryDx=0;entryDy=0;fillColor=#0050ef;strokeColor=#FFFFFF;" parent="j03V7xY_W4QlnJfzkWD_-255" source="j03V7xY_W4QlnJfzkWD_-52" target="j03V7xY_W4QlnJfzkWD_-53" edge="1">
          <mxGeometry relative="1" as="geometry" />
        </mxCell>
        <mxCell id="j03V7xY_W4QlnJfzkWD_-54" value="4" style="ellipse;whiteSpace=wrap;html=1;fillColor=#0050ef;fontColor=#ffffff;strokeColor=#FFFFFF;" parent="j03V7xY_W4QlnJfzkWD_-255" vertex="1">
          <mxGeometry x="281" y="410" width="50" height="50" as="geometry" />
        </mxCell>
        <mxCell id="j03V7xY_W4QlnJfzkWD_-79" style="edgeStyle=orthogonalEdgeStyle;rounded=0;orthogonalLoop=1;jettySize=auto;html=1;exitX=0.5;exitY=1;exitDx=0;exitDy=0;entryX=0.5;entryY=0;entryDx=0;entryDy=0;fillColor=#0050ef;strokeColor=#FFFFFF;" parent="j03V7xY_W4QlnJfzkWD_-255" source="j03V7xY_W4QlnJfzkWD_-53" target="j03V7xY_W4QlnJfzkWD_-54" edge="1">
          <mxGeometry relative="1" as="geometry" />
        </mxCell>
        <mxCell id="j03V7xY_W4QlnJfzkWD_-55" value="0" style="ellipse;whiteSpace=wrap;html=1;fillColor=#0050ef;fontColor=#ffffff;strokeColor=#FFFFFF;" parent="j03V7xY_W4QlnJfzkWD_-255" vertex="1">
          <mxGeometry x="201" y="490" width="50" height="50" as="geometry" />
        </mxCell>
        <mxCell id="j03V7xY_W4QlnJfzkWD_-82" style="edgeStyle=orthogonalEdgeStyle;rounded=0;orthogonalLoop=1;jettySize=auto;html=1;exitX=0.5;exitY=1;exitDx=0;exitDy=0;entryX=0.5;entryY=0;entryDx=0;entryDy=0;fillColor=#0050ef;strokeColor=#FFFFFF;" parent="j03V7xY_W4QlnJfzkWD_-255" source="j03V7xY_W4QlnJfzkWD_-54" target="j03V7xY_W4QlnJfzkWD_-55" edge="1">
          <mxGeometry relative="1" as="geometry" />
        </mxCell>
        <mxCell id="j03V7xY_W4QlnJfzkWD_-56" value="1" style="ellipse;whiteSpace=wrap;html=1;fillColor=#0050ef;fontColor=#ffffff;strokeColor=#FFFFFF;" parent="j03V7xY_W4QlnJfzkWD_-255" vertex="1">
          <mxGeometry x="281" y="490" width="50" height="50" as="geometry" />
        </mxCell>
        <mxCell id="j03V7xY_W4QlnJfzkWD_-80" style="edgeStyle=orthogonalEdgeStyle;rounded=0;orthogonalLoop=1;jettySize=auto;html=1;exitX=0.5;exitY=1;exitDx=0;exitDy=0;entryX=0.5;entryY=0;entryDx=0;entryDy=0;fillColor=#0050ef;strokeColor=#FFFFFF;" parent="j03V7xY_W4QlnJfzkWD_-255" source="j03V7xY_W4QlnJfzkWD_-54" target="j03V7xY_W4QlnJfzkWD_-56" edge="1">
          <mxGeometry relative="1" as="geometry" />
        </mxCell>
        <mxCell id="j03V7xY_W4QlnJfzkWD_-57" value="6" style="ellipse;whiteSpace=wrap;html=1;fillColor=#0050ef;fontColor=#ffffff;strokeColor=#FFFFFF;" parent="j03V7xY_W4QlnJfzkWD_-255" vertex="1">
          <mxGeometry x="361" y="490" width="50" height="50" as="geometry" />
        </mxCell>
        <mxCell id="j03V7xY_W4QlnJfzkWD_-83" style="edgeStyle=orthogonalEdgeStyle;rounded=0;orthogonalLoop=1;jettySize=auto;html=1;exitX=0.5;exitY=1;exitDx=0;exitDy=0;entryX=0.5;entryY=0;entryDx=0;entryDy=0;fillColor=#0050ef;strokeColor=#FFFFFF;" parent="j03V7xY_W4QlnJfzkWD_-255" source="j03V7xY_W4QlnJfzkWD_-54" target="j03V7xY_W4QlnJfzkWD_-57" edge="1">
          <mxGeometry relative="1" as="geometry" />
        </mxCell>
        <mxCell id="j03V7xY_W4QlnJfzkWD_-58" value="5" style="ellipse;whiteSpace=wrap;html=1;fillColor=#0050ef;fontColor=#ffffff;strokeColor=#FFFFFF;" parent="j03V7xY_W4QlnJfzkWD_-255" vertex="1">
          <mxGeometry x="440" y="250" width="50" height="50" as="geometry" />
        </mxCell>
        <mxCell id="j03V7xY_W4QlnJfzkWD_-86" style="edgeStyle=orthogonalEdgeStyle;rounded=0;orthogonalLoop=1;jettySize=auto;html=1;exitX=0.5;exitY=1;exitDx=0;exitDy=0;entryX=0.5;entryY=0;entryDx=0;entryDy=0;fillColor=#0050ef;strokeColor=#000000;strokeWidth=5;" parent="j03V7xY_W4QlnJfzkWD_-255" source="j03V7xY_W4QlnJfzkWD_-42" target="j03V7xY_W4QlnJfzkWD_-58" edge="1">
          <mxGeometry relative="1" as="geometry" />
        </mxCell>
        <mxCell id="j03V7xY_W4QlnJfzkWD_-59" value="2" style="ellipse;whiteSpace=wrap;html=1;fillColor=#0050ef;fontColor=#ffffff;strokeColor=#FFFFFF;" parent="j03V7xY_W4QlnJfzkWD_-255" vertex="1">
          <mxGeometry x="561" y="250" width="50" height="50" as="geometry" />
        </mxCell>
        <mxCell id="j03V7xY_W4QlnJfzkWD_-87" style="edgeStyle=orthogonalEdgeStyle;rounded=0;orthogonalLoop=1;jettySize=auto;html=1;exitX=0.5;exitY=1;exitDx=0;exitDy=0;entryX=0.5;entryY=0;entryDx=0;entryDy=0;fillColor=#0050ef;strokeColor=#000000;strokeWidth=5;" parent="j03V7xY_W4QlnJfzkWD_-255" source="j03V7xY_W4QlnJfzkWD_-42" target="j03V7xY_W4QlnJfzkWD_-59" edge="1">
          <mxGeometry relative="1" as="geometry" />
        </mxCell>
        <mxCell id="j03V7xY_W4QlnJfzkWD_-60" value="2" style="ellipse;whiteSpace=wrap;html=1;fillColor=#0050ef;fontColor=#ffffff;strokeColor=#FFFFFF;" parent="j03V7xY_W4QlnJfzkWD_-255" vertex="1">
          <mxGeometry x="561" y="330" width="50" height="50" as="geometry" />
        </mxCell>
        <mxCell id="j03V7xY_W4QlnJfzkWD_-89" style="edgeStyle=orthogonalEdgeStyle;rounded=0;orthogonalLoop=1;jettySize=auto;html=1;exitX=0.5;exitY=1;exitDx=0;exitDy=0;entryX=0.5;entryY=0;entryDx=0;entryDy=0;fillColor=#0050ef;strokeColor=#FFFFFF;" parent="j03V7xY_W4QlnJfzkWD_-255" source="j03V7xY_W4QlnJfzkWD_-59" target="j03V7xY_W4QlnJfzkWD_-60" edge="1">
          <mxGeometry relative="1" as="geometry" />
        </mxCell>
        <mxCell id="j03V7xY_W4QlnJfzkWD_-61" value="5" style="ellipse;whiteSpace=wrap;html=1;fillColor=#0050ef;fontColor=#ffffff;strokeColor=#FFFFFF;" parent="j03V7xY_W4QlnJfzkWD_-255" vertex="1">
          <mxGeometry x="440" y="330" width="50" height="50" as="geometry" />
        </mxCell>
        <mxCell id="j03V7xY_W4QlnJfzkWD_-88" style="edgeStyle=orthogonalEdgeStyle;rounded=0;orthogonalLoop=1;jettySize=auto;html=1;exitX=0.5;exitY=1;exitDx=0;exitDy=0;entryX=0.5;entryY=0;entryDx=0;entryDy=0;fillColor=#0050ef;strokeColor=#FFFFFF;" parent="j03V7xY_W4QlnJfzkWD_-255" source="j03V7xY_W4QlnJfzkWD_-58" target="j03V7xY_W4QlnJfzkWD_-61" edge="1">
          <mxGeometry relative="1" as="geometry" />
        </mxCell>
        <mxCell id="j03V7xY_W4QlnJfzkWD_-62" value="5" style="ellipse;whiteSpace=wrap;html=1;fillColor=#0050ef;fontColor=#ffffff;strokeColor=#FFFFFF;" parent="j03V7xY_W4QlnJfzkWD_-255" vertex="1">
          <mxGeometry x="440" y="410" width="50" height="50" as="geometry" />
        </mxCell>
        <mxCell id="j03V7xY_W4QlnJfzkWD_-92" style="edgeStyle=orthogonalEdgeStyle;rounded=0;orthogonalLoop=1;jettySize=auto;html=1;exitX=0.5;exitY=1;exitDx=0;exitDy=0;entryX=0.5;entryY=0;entryDx=0;entryDy=0;fillColor=#0050ef;strokeColor=#FFFFFF;" parent="j03V7xY_W4QlnJfzkWD_-255" source="j03V7xY_W4QlnJfzkWD_-61" target="j03V7xY_W4QlnJfzkWD_-62" edge="1">
          <mxGeometry relative="1" as="geometry" />
        </mxCell>
        <mxCell id="j03V7xY_W4QlnJfzkWD_-63" value="2" style="ellipse;whiteSpace=wrap;html=1;fillColor=#0050ef;fontColor=#ffffff;strokeColor=#FFFFFF;" parent="j03V7xY_W4QlnJfzkWD_-255" vertex="1">
          <mxGeometry x="520" y="412" width="50" height="50" as="geometry" />
        </mxCell>
        <mxCell id="j03V7xY_W4QlnJfzkWD_-64" value="2" style="ellipse;whiteSpace=wrap;html=1;fillColor=#0050ef;fontColor=#ffffff;strokeColor=#FFFFFF;" parent="j03V7xY_W4QlnJfzkWD_-255" vertex="1">
          <mxGeometry x="601" y="410" width="50" height="50" as="geometry" />
        </mxCell>
        <mxCell id="j03V7xY_W4QlnJfzkWD_-91" style="edgeStyle=orthogonalEdgeStyle;rounded=0;orthogonalLoop=1;jettySize=auto;html=1;exitX=0.5;exitY=1;exitDx=0;exitDy=0;entryX=0.5;entryY=0;entryDx=0;entryDy=0;fillColor=#0050ef;strokeColor=#FFFFFF;" parent="j03V7xY_W4QlnJfzkWD_-255" source="j03V7xY_W4QlnJfzkWD_-60" target="j03V7xY_W4QlnJfzkWD_-64" edge="1">
          <mxGeometry relative="1" as="geometry" />
        </mxCell>
        <mxCell id="j03V7xY_W4QlnJfzkWD_-65" value="6" style="ellipse;whiteSpace=wrap;html=1;fillColor=#0050ef;fontColor=#ffffff;strokeColor=#FFFFFF;" parent="j03V7xY_W4QlnJfzkWD_-255" vertex="1">
          <mxGeometry x="721" y="254" width="50" height="50" as="geometry" />
        </mxCell>
        <mxCell id="j03V7xY_W4QlnJfzkWD_-102" style="edgeStyle=orthogonalEdgeStyle;rounded=0;orthogonalLoop=1;jettySize=auto;html=1;exitX=0.5;exitY=1;exitDx=0;exitDy=0;entryX=0.5;entryY=0;entryDx=0;entryDy=0;fillColor=#0050ef;strokeColor=#FFFFFF;" parent="j03V7xY_W4QlnJfzkWD_-255" source="j03V7xY_W4QlnJfzkWD_-44" target="j03V7xY_W4QlnJfzkWD_-65" edge="1">
          <mxGeometry relative="1" as="geometry" />
        </mxCell>
        <mxCell id="j03V7xY_W4QlnJfzkWD_-66" value="6" style="ellipse;whiteSpace=wrap;html=1;fillColor=#0050ef;fontColor=#ffffff;strokeColor=#FFFFFF;" parent="j03V7xY_W4QlnJfzkWD_-255" vertex="1">
          <mxGeometry x="721" y="334" width="50" height="50" as="geometry" />
        </mxCell>
        <mxCell id="j03V7xY_W4QlnJfzkWD_-104" style="edgeStyle=orthogonalEdgeStyle;rounded=0;orthogonalLoop=1;jettySize=auto;html=1;exitX=0.5;exitY=1;exitDx=0;exitDy=0;entryX=0.5;entryY=0;entryDx=0;entryDy=0;fillColor=#0050ef;strokeColor=#FFFFFF;" parent="j03V7xY_W4QlnJfzkWD_-255" source="j03V7xY_W4QlnJfzkWD_-65" target="j03V7xY_W4QlnJfzkWD_-66" edge="1">
          <mxGeometry relative="1" as="geometry" />
        </mxCell>
        <mxCell id="j03V7xY_W4QlnJfzkWD_-67" value="6" style="ellipse;whiteSpace=wrap;html=1;fillColor=#0050ef;fontColor=#ffffff;strokeColor=#FFFFFF;" parent="j03V7xY_W4QlnJfzkWD_-255" vertex="1">
          <mxGeometry x="919" y="250" width="50" height="50" as="geometry" />
        </mxCell>
        <mxCell id="j03V7xY_W4QlnJfzkWD_-108" style="edgeStyle=orthogonalEdgeStyle;rounded=0;orthogonalLoop=1;jettySize=auto;html=1;exitX=0.5;exitY=1;exitDx=0;exitDy=0;entryX=0.5;entryY=0;entryDx=0;entryDy=0;fillColor=#0050ef;strokeColor=#FFFFFF;" parent="j03V7xY_W4QlnJfzkWD_-255" source="j03V7xY_W4QlnJfzkWD_-45" target="j03V7xY_W4QlnJfzkWD_-67" edge="1">
          <mxGeometry relative="1" as="geometry" />
        </mxCell>
        <mxCell id="j03V7xY_W4QlnJfzkWD_-68" value="6" style="ellipse;whiteSpace=wrap;html=1;fillColor=#0050ef;fontColor=#ffffff;strokeColor=#FFFFFF;" parent="j03V7xY_W4QlnJfzkWD_-255" vertex="1">
          <mxGeometry x="920" y="332" width="50" height="50" as="geometry" />
        </mxCell>
        <mxCell id="j03V7xY_W4QlnJfzkWD_-109" style="edgeStyle=orthogonalEdgeStyle;rounded=0;orthogonalLoop=1;jettySize=auto;html=1;exitX=0.5;exitY=1;exitDx=0;exitDy=0;entryX=0.5;entryY=0;entryDx=0;entryDy=0;fillColor=#0050ef;strokeColor=#FFFFFF;" parent="j03V7xY_W4QlnJfzkWD_-255" source="j03V7xY_W4QlnJfzkWD_-67" target="j03V7xY_W4QlnJfzkWD_-68" edge="1">
          <mxGeometry relative="1" as="geometry" />
        </mxCell>
        <mxCell id="j03V7xY_W4QlnJfzkWD_-97" style="edgeStyle=orthogonalEdgeStyle;rounded=0;orthogonalLoop=1;jettySize=auto;html=1;exitX=0.5;exitY=1;exitDx=0;exitDy=0;fillColor=#0050ef;strokeColor=#FFFFFF;" parent="j03V7xY_W4QlnJfzkWD_-255" source="j03V7xY_W4QlnJfzkWD_-69" edge="1">
          <mxGeometry relative="1" as="geometry">
            <mxPoint x="104" y="410" as="targetPoint" />
          </mxGeometry>
        </mxCell>
        <mxCell id="j03V7xY_W4QlnJfzkWD_-69" value="2" style="ellipse;whiteSpace=wrap;html=1;fillColor=#0050ef;fontColor=#ffffff;strokeColor=#FFFFFF;" parent="j03V7xY_W4QlnJfzkWD_-255" vertex="1">
          <mxGeometry x="79" y="334" width="50" height="50" as="geometry" />
        </mxCell>
        <mxCell id="j03V7xY_W4QlnJfzkWD_-70" value="1" style="ellipse;whiteSpace=wrap;html=1;fillColor=#0050ef;fontColor=#ffffff;strokeColor=#FFFFFF;" parent="j03V7xY_W4QlnJfzkWD_-255" vertex="1">
          <mxGeometry x="79" y="414" width="50" height="50" as="geometry" />
        </mxCell>
        <mxCell id="j03V7xY_W4QlnJfzkWD_-85" style="edgeStyle=orthogonalEdgeStyle;rounded=0;orthogonalLoop=1;jettySize=auto;html=1;exitX=0.5;exitY=1;exitDx=0;exitDy=0;fillColor=#0050ef;strokeColor=#000000;strokeWidth=5;" parent="j03V7xY_W4QlnJfzkWD_-255" edge="1">
          <mxGeometry relative="1" as="geometry">
            <mxPoint x="546" y="224" as="sourcePoint" />
            <mxPoint x="546" y="224" as="targetPoint" />
          </mxGeometry>
        </mxCell>
        <mxCell id="j03V7xY_W4QlnJfzkWD_-90" style="edgeStyle=orthogonalEdgeStyle;rounded=0;orthogonalLoop=1;jettySize=auto;html=1;exitX=0.5;exitY=1;exitDx=0;exitDy=0;fillColor=#0050ef;strokeColor=#FFFFFF;" parent="j03V7xY_W4QlnJfzkWD_-255" source="j03V7xY_W4QlnJfzkWD_-60" edge="1">
          <mxGeometry relative="1" as="geometry">
            <mxPoint x="545" y="410" as="targetPoint" />
          </mxGeometry>
        </mxCell>
        <mxCell id="j03V7xY_W4QlnJfzkWD_-114" style="edgeStyle=orthogonalEdgeStyle;rounded=0;orthogonalLoop=1;jettySize=auto;html=1;exitX=0.5;exitY=1;exitDx=0;exitDy=0;fillColor=#0050ef;strokeColor=#FFFFFF;" parent="j03V7xY_W4QlnJfzkWD_-255" source="j03V7xY_W4QlnJfzkWD_-110" edge="1">
          <mxGeometry relative="1" as="geometry">
            <mxPoint x="864" y="330" as="targetPoint" />
          </mxGeometry>
        </mxCell>
        <mxCell id="j03V7xY_W4QlnJfzkWD_-110" value="7" style="ellipse;whiteSpace=wrap;html=1;fillColor=#0050ef;fontColor=#ffffff;strokeColor=#FFFFFF;" parent="j03V7xY_W4QlnJfzkWD_-255" vertex="1">
          <mxGeometry x="839" y="250" width="50" height="50" as="geometry" />
        </mxCell>
        <mxCell id="j03V7xY_W4QlnJfzkWD_-113" style="edgeStyle=orthogonalEdgeStyle;rounded=0;orthogonalLoop=1;jettySize=auto;html=1;exitX=0.5;exitY=1;exitDx=0;exitDy=0;entryX=0.5;entryY=0;entryDx=0;entryDy=0;fillColor=#0050ef;strokeColor=#FFFFFF;" parent="j03V7xY_W4QlnJfzkWD_-255" source="j03V7xY_W4QlnJfzkWD_-46" target="j03V7xY_W4QlnJfzkWD_-110" edge="1">
          <mxGeometry relative="1" as="geometry" />
        </mxCell>
        <mxCell id="j03V7xY_W4QlnJfzkWD_-115" style="edgeStyle=orthogonalEdgeStyle;rounded=0;orthogonalLoop=1;jettySize=auto;html=1;exitX=0.5;exitY=1;exitDx=0;exitDy=0;fillColor=#0050ef;strokeColor=#FFFFFF;" parent="j03V7xY_W4QlnJfzkWD_-255" source="j03V7xY_W4QlnJfzkWD_-111" edge="1">
          <mxGeometry relative="1" as="geometry">
            <mxPoint x="864" y="410" as="targetPoint" />
          </mxGeometry>
        </mxCell>
        <mxCell id="j03V7xY_W4QlnJfzkWD_-111" value="7" style="ellipse;whiteSpace=wrap;html=1;fillColor=#0050ef;fontColor=#ffffff;strokeColor=#FFFFFF;" parent="j03V7xY_W4QlnJfzkWD_-255" vertex="1">
          <mxGeometry x="839" y="333" width="50" height="50" as="geometry" />
        </mxCell>
        <mxCell id="j03V7xY_W4QlnJfzkWD_-112" value="7" style="ellipse;whiteSpace=wrap;html=1;fillColor=#0050ef;fontColor=#ffffff;strokeColor=#FFFFFF;" parent="j03V7xY_W4QlnJfzkWD_-255" vertex="1">
          <mxGeometry x="839" y="413" width="50" height="50" as="geometry" />
        </mxCell>
        <mxCell id="j03V7xY_W4QlnJfzkWD_-118" value="2" style="ellipse;whiteSpace=wrap;html=1;fillColor=#0050ef;fontColor=#ffffff;strokeColor=#FFFFFF;" parent="j03V7xY_W4QlnJfzkWD_-255" vertex="1">
          <mxGeometry x="1001" y="330" width="50" height="50" as="geometry" />
        </mxCell>
        <mxCell id="j03V7xY_W4QlnJfzkWD_-119" value="2" style="ellipse;whiteSpace=wrap;html=1;fillColor=#0050ef;fontColor=#ffffff;strokeColor=#FFFFFF;" parent="j03V7xY_W4QlnJfzkWD_-255" vertex="1">
          <mxGeometry x="960" y="410" width="50" height="50" as="geometry" />
        </mxCell>
        <mxCell id="j03V7xY_W4QlnJfzkWD_-120" value="2" style="ellipse;whiteSpace=wrap;html=1;fillColor=#0050ef;fontColor=#ffffff;strokeColor=#FFFFFF;" parent="j03V7xY_W4QlnJfzkWD_-255" vertex="1">
          <mxGeometry x="1041" y="410" width="50" height="50" as="geometry" />
        </mxCell>
        <mxCell id="j03V7xY_W4QlnJfzkWD_-117" style="edgeStyle=orthogonalEdgeStyle;rounded=0;orthogonalLoop=1;jettySize=auto;html=1;exitX=0.5;exitY=1;exitDx=0;exitDy=0;entryX=0.5;entryY=0;entryDx=0;entryDy=0;fillColor=#0050ef;strokeColor=#FFFFFF;" parent="j03V7xY_W4QlnJfzkWD_-255" source="j03V7xY_W4QlnJfzkWD_-118" target="j03V7xY_W4QlnJfzkWD_-120" edge="1">
          <mxGeometry relative="1" as="geometry" />
        </mxCell>
        <mxCell id="j03V7xY_W4QlnJfzkWD_-121" style="edgeStyle=orthogonalEdgeStyle;rounded=0;orthogonalLoop=1;jettySize=auto;html=1;exitX=0.5;exitY=1;exitDx=0;exitDy=0;entryX=0.68;entryY=0.02;entryDx=0;entryDy=0;entryPerimeter=0;fillColor=#0050ef;strokeColor=#FFFFFF;" parent="j03V7xY_W4QlnJfzkWD_-255" source="j03V7xY_W4QlnJfzkWD_-118" target="j03V7xY_W4QlnJfzkWD_-119" edge="1">
          <mxGeometry relative="1" as="geometry" />
        </mxCell>
        <mxCell id="j03V7xY_W4QlnJfzkWD_-122" value="2" style="ellipse;whiteSpace=wrap;html=1;fillColor=#0050ef;fontColor=#ffffff;strokeColor=#FFFFFF;" parent="j03V7xY_W4QlnJfzkWD_-255" vertex="1">
          <mxGeometry x="1001" y="250" width="50" height="50" as="geometry" />
        </mxCell>
        <mxCell id="j03V7xY_W4QlnJfzkWD_-123" style="edgeStyle=orthogonalEdgeStyle;rounded=0;orthogonalLoop=1;jettySize=auto;html=1;exitX=0.5;exitY=1;exitDx=0;exitDy=0;entryX=0.5;entryY=0;entryDx=0;entryDy=0;fillColor=#0050ef;strokeColor=#FFFFFF;" parent="j03V7xY_W4QlnJfzkWD_-255" source="j03V7xY_W4QlnJfzkWD_-47" target="j03V7xY_W4QlnJfzkWD_-122" edge="1">
          <mxGeometry relative="1" as="geometry" />
        </mxCell>
        <mxCell id="j03V7xY_W4QlnJfzkWD_-116" style="edgeStyle=orthogonalEdgeStyle;rounded=0;orthogonalLoop=1;jettySize=auto;html=1;exitX=0.5;exitY=1;exitDx=0;exitDy=0;entryX=0.5;entryY=0;entryDx=0;entryDy=0;fillColor=#0050ef;strokeColor=#FFFFFF;" parent="j03V7xY_W4QlnJfzkWD_-255" source="j03V7xY_W4QlnJfzkWD_-122" target="j03V7xY_W4QlnJfzkWD_-118" edge="1">
          <mxGeometry relative="1" as="geometry" />
        </mxCell>
        <mxCell id="j03V7xY_W4QlnJfzkWD_-132" value="1" style="ellipse;whiteSpace=wrap;html=1;fillColor=#0050ef;fontColor=#ffffff;strokeColor=#FFFFFF;" parent="j03V7xY_W4QlnJfzkWD_-255" vertex="1">
          <mxGeometry x="281" y="570" width="50" height="50" as="geometry" />
        </mxCell>
        <mxCell id="j03V7xY_W4QlnJfzkWD_-133" style="edgeStyle=orthogonalEdgeStyle;rounded=0;orthogonalLoop=1;jettySize=auto;html=1;exitX=0.5;exitY=1;exitDx=0;exitDy=0;entryX=0.5;entryY=0;entryDx=0;entryDy=0;fillColor=#0050ef;strokeColor=#FFFFFF;" parent="j03V7xY_W4QlnJfzkWD_-255" source="j03V7xY_W4QlnJfzkWD_-56" target="j03V7xY_W4QlnJfzkWD_-132" edge="1">
          <mxGeometry relative="1" as="geometry" />
        </mxCell>
        <mxCell id="j03V7xY_W4QlnJfzkWD_-135" value="6" style="ellipse;whiteSpace=wrap;html=1;fillColor=#0050ef;fontColor=#ffffff;strokeColor=#FFFFFF;" parent="j03V7xY_W4QlnJfzkWD_-255" vertex="1">
          <mxGeometry x="721" y="414" width="50" height="50" as="geometry" />
        </mxCell>
        <mxCell id="j03V7xY_W4QlnJfzkWD_-138" style="edgeStyle=orthogonalEdgeStyle;rounded=0;orthogonalLoop=1;jettySize=auto;html=1;exitX=0.5;exitY=1;exitDx=0;exitDy=0;entryX=0.5;entryY=0;entryDx=0;entryDy=0;fillColor=#0050ef;strokeColor=#FFFFFF;" parent="j03V7xY_W4QlnJfzkWD_-255" source="j03V7xY_W4QlnJfzkWD_-66" target="j03V7xY_W4QlnJfzkWD_-135" edge="1">
          <mxGeometry relative="1" as="geometry" />
        </mxCell>
        <mxCell id="j03V7xY_W4QlnJfzkWD_-139" value="7" style="ellipse;whiteSpace=wrap;html=1;fillColor=#0050ef;fontColor=#ffffff;strokeColor=#FFFFFF;" parent="j03V7xY_W4QlnJfzkWD_-255" vertex="1">
          <mxGeometry x="839" y="493" width="50" height="50" as="geometry" />
        </mxCell>
        <mxCell id="j03V7xY_W4QlnJfzkWD_-140" style="edgeStyle=orthogonalEdgeStyle;rounded=0;orthogonalLoop=1;jettySize=auto;html=1;exitX=0.5;exitY=1;exitDx=0;exitDy=0;entryX=0.5;entryY=0;entryDx=0;entryDy=0;fillColor=#0050ef;strokeColor=#FFFFFF;" parent="j03V7xY_W4QlnJfzkWD_-255" source="j03V7xY_W4QlnJfzkWD_-112" target="j03V7xY_W4QlnJfzkWD_-139" edge="1">
          <mxGeometry relative="1" as="geometry" />
        </mxCell>
        <mxCell id="j03V7xY_W4QlnJfzkWD_-141" value="6" style="ellipse;whiteSpace=wrap;html=1;fillColor=#0050ef;fontColor=#ffffff;strokeColor=#FFFFFF;" parent="j03V7xY_W4QlnJfzkWD_-255" vertex="1">
          <mxGeometry x="721" y="494" width="50" height="50" as="geometry" />
        </mxCell>
        <mxCell id="j03V7xY_W4QlnJfzkWD_-144" style="edgeStyle=orthogonalEdgeStyle;rounded=0;orthogonalLoop=1;jettySize=auto;html=1;exitX=0.5;exitY=1;exitDx=0;exitDy=0;entryX=0.5;entryY=0;entryDx=0;entryDy=0;fillColor=#0050ef;strokeColor=#FFFFFF;" parent="j03V7xY_W4QlnJfzkWD_-255" source="j03V7xY_W4QlnJfzkWD_-135" target="j03V7xY_W4QlnJfzkWD_-141" edge="1">
          <mxGeometry relative="1" as="geometry" />
        </mxCell>
        <mxCell id="j03V7xY_W4QlnJfzkWD_-142" value="7" style="ellipse;whiteSpace=wrap;html=1;fillColor=#0050ef;fontColor=#ffffff;strokeColor=#FFFFFF;" parent="j03V7xY_W4QlnJfzkWD_-255" vertex="1">
          <mxGeometry x="839" y="573" width="50" height="50" as="geometry" />
        </mxCell>
        <mxCell id="j03V7xY_W4QlnJfzkWD_-143" style="edgeStyle=orthogonalEdgeStyle;rounded=0;orthogonalLoop=1;jettySize=auto;html=1;exitX=0.5;exitY=1;exitDx=0;exitDy=0;entryX=0.5;entryY=0;entryDx=0;entryDy=0;fillColor=#0050ef;strokeColor=#FFFFFF;" parent="j03V7xY_W4QlnJfzkWD_-255" source="j03V7xY_W4QlnJfzkWD_-139" target="j03V7xY_W4QlnJfzkWD_-142" edge="1">
          <mxGeometry relative="1" as="geometry" />
        </mxCell>
      </root>
    </mxGraphModel>
  </diagram>
</mxfile>
